<svg id="dribbble.svg" xmlns="http://www.w3.org/2000/svg" width="34" height="34" viewBox="0 0 34 34">
  <defs>
    <style>
      .cls-1 {
        fill: #4b5456;
      }

      .cls-2 {
        fill: #fff;
        fill-rule: evenodd;
      }
    </style>
  </defs>
  <circle id="container" class="cls-1" cx="17" cy="17" r="17"/>
  <path id="icon" class="cls-2" d="M874.714,5621.25a8.915,8.915,0,0,1-.521,1.68,9.085,9.085,0,0,1-1.917,2.85,9.4,9.4,0,0,1-1.322,1.09,8.927,8.927,0,0,1-1.521.82,8.985,8.985,0,0,1-6.966,0,8.918,8.918,0,0,1-1.52-.82,9.35,9.35,0,0,1-1.323-1.09,9.178,9.178,0,0,1-1.092-1.33,9.081,9.081,0,0,1-.824-1.52,8.7,8.7,0,0,1-.521-1.68,8.944,8.944,0,0,1,0-3.6,8.7,8.7,0,0,1,.521-1.68,9.081,9.081,0,0,1,.824-1.52,9.178,9.178,0,0,1,1.092-1.33,9.35,9.35,0,0,1,1.323-1.09,8.918,8.918,0,0,1,1.52-.82,8.3,8.3,0,0,1,1.681-.52,8.64,8.64,0,0,1,3.6,0,8.3,8.3,0,0,1,1.681.52,8.927,8.927,0,0,1,1.521.82,9.4,9.4,0,0,1,1.322,1.09,9.085,9.085,0,0,1,1.917,2.85A8.974,8.974,0,0,1,874.714,5621.25Zm-4.525,4.37a7.2,7.2,0,0,0,1.056-.88,7.97,7.97,0,0,0,.915-1.1,7.4,7.4,0,0,0,1.126-2.68c0.023-.11.034-0.23,0.052-0.34a2.262,2.262,0,0,0-.241-0.07c-0.015,0-.029-0.01-0.045-0.01-0.216-.05-0.5-0.12-0.844-0.17h0a10.723,10.723,0,0,0-3.474-.03A33.646,33.646,0,0,1,870.189,5625.62Zm-7.154.73a7.708,7.708,0,0,0,1.405.44,7.445,7.445,0,0,0,4.425-.44c0.014-.01.027-0.01,0.041-0.02a31.946,31.946,0,0,0-1.606-5.64c-0.017,0-.033.01-0.049,0.01a12.411,12.411,0,0,0-1.269.53c-0.056.02-.116,0.05-0.17,0.07a10.688,10.688,0,0,0-1.023.57c-0.06.04-.118,0.07-0.176,0.11a10.167,10.167,0,0,0-.847.6c-0.041.03-.078,0.06-0.118,0.09-0.261.21-.5,0.42-0.718,0.63h0c-0.218.21-.406,0.41-0.577,0.6-0.024.03-.05,0.06-0.073,0.09q-0.234.27-.409,0.51c-0.022.03-.044,0.05-0.065,0.08-0.108.15-.2,0.29-0.278,0.41-0.012.02-.022,0.04-0.034,0.06-0.07.11-.13,0.21-0.167,0.28h0a4.944,4.944,0,0,0,.436.33A7.784,7.784,0,0,0,863.035,5626.35Zm-4.561-7.14c0,0.08-.012.16-0.012,0.24a7.583,7.583,0,0,0,.152,1.51,7.375,7.375,0,0,0,1.127,2.68,7.111,7.111,0,0,0,.622.75h0c0.051-.08.127-0.2,0.216-0.33,0.016-.02.028-0.04,0.045-0.06,0.094-.14.209-0.29,0.34-0.46a0.694,0.694,0,0,1,.078-0.1c0.14-.18.3-0.37,0.476-0.57,0.026-.03.054-0.06,0.082-0.09,0.194-.22.4-0.44,0.64-0.67h0c0.231-.22.488-0.44,0.76-0.67a1.168,1.168,0,0,0,.122-0.1c0.266-.21.553-0.42,0.856-0.62a1.784,1.784,0,0,0,.174-0.11c0.312-.19.64-0.38,0.989-0.55,0.053-.03.108-0.05,0.161-0.08a10.251,10.251,0,0,1,1.178-.47c0.1-.03.2-0.06,0.295-0.08-0.194-.44-0.4-0.88-0.618-1.31a28.463,28.463,0,0,1-7.279,1.09h-0.4Zm4.312-6.54a7.855,7.855,0,0,0-1.023.57,8.308,8.308,0,0,0-1.107.91,7.982,7.982,0,0,0-.915,1.11,7.457,7.457,0,0,0-1.11,2.62c0.08,0,.19-0.01.325-0.01h0.009c0.275,0,.655-0.02,1.119-0.05h0a29.813,29.813,0,0,0,4.735-.7h0l0.7-.18A46.577,46.577,0,0,0,862.786,5612.67Zm7.351,0.57a7.549,7.549,0,0,0-2.678-1.13,7.67,7.67,0,0,0-3.019,0,1.307,1.307,0,0,1-.188.05,39.717,39.717,0,0,1,2.747,4.31h0c0.3-.11.577-0.23,0.838-0.35,0,0,.011-0.01.016-0.01a8.389,8.389,0,0,0,3.034-2.25A6.852,6.852,0,0,0,870.137,5613.24Zm3.149,4.7a7.6,7.6,0,0,0-1.126-2.68c-0.125-.18-0.285-0.34-0.426-0.51a9.945,9.945,0,0,1-3.228,2.44l-0.06.03c-0.27.14-.552,0.26-0.858,0.39,0.18,0.37.354,0.74,0.514,1.12,0.057,0.13.105,0.26,0.16,0.4,0.272-.04.542-0.06,0.811-0.08a0.614,0.614,0,0,0,.135-0.01c0.229-.01.454-0.02,0.676-0.02H870c0.254,0,.5.01,0.742,0.02h0.052c0.217,0.01.424,0.02,0.623,0.04a0.679,0.679,0,0,1,.143.01c0.194,0.01.381,0.03,0.554,0.05,0.011,0,.024.01,0.035,0.01,0.186,0.02.354,0.04,0.509,0.06,0.04,0.01.074,0.01,0.112,0.02,0.117,0.02.222,0.03,0.316,0.05,0.026,0,.052.01,0.077,0.01,0.111,0.02.2,0.04,0.272,0.05h0A7.646,7.646,0,0,0,873.286,5617.94Z" transform="translate(-849 -5602)"/>
</svg>
