<svg id="linkedin.svg" xmlns="http://www.w3.org/2000/svg" width="34" height="34" viewBox="0 0 34 34">
  <defs>
    <style>
      .cls-1 {
        fill: #4b5456;
      }

      .cls-2 {
        fill: #191f21;
        fill-rule: evenodd;
      }
    </style>
  </defs>
  <circle id="container" class="cls-1" cx="17" cy="17" r="17"/>
  <path id="icon" class="cls-2" d="M914.428,5626v-5.66c0-1.37-.553-2.16-1.42-2.16a2.173,2.173,0,0,0-1.838.98,2.216,2.216,0,0,0-.2.94v5.87L908,5626v-11l2.6,0.18,0.149,1.88h0.064a3.575,3.575,0,0,1,3.209-1.71c2.122,0,3.99,1.44,3.99,4.57v6.05ZM903,5615h3v11l-3-.03V5615Zm1.711-.7a1.656,1.656,0,1,1,1.743-1.66A1.629,1.629,0,0,1,904.711,5614.3Z" transform="translate(-893 -5602)"/>
</svg>
